<?xml version="1.0" encoding="utf-8"?>
<svg xmlns="http://www.w3.org/2000/svg" width="24.07" height="21.045" viewBox="0 0 24.07 21.045">
  <g id="shopping-cart" transform="translate(0 -31.132)">
    <g id="Group_3" data-name="Group 3" transform="translate(0 31.132)">
      <path id="Path_3" data-name="Path 3" d="M145.68,381.529a2.01,2.01,0,1,0,2.01,2.01A2.01,2.01,0,0,0,145.68,381.529Z" transform="translate(-136.689 -364.504)" fill="#575757"/>
      <path id="Path_4" data-name="Path 4" d="M326.253,381.529a2.01,2.01,0,1,0,2.011,2.01A2.01,2.01,0,0,0,326.253,381.529Z" transform="translate(-308.489 -364.504)" fill="#575757"/>
      <path id="Path_5" data-name="Path 5" d="M22.814,37.138H11.679a1.008,1.008,0,0,0,0,2.016h9.852l-.625,2.115-10.017,0a.935.935,0,0,0,0,1.871l9.463,0-.588,1.978H8.476l-.749-5.971-.715-5.817a1.13,1.13,0,0,0-.841-.953L1.409,31.168a1.13,1.13,0,0,0-.558,2.189l4.017,1.025L6.431,46.12s.053,1.369,1.3,1.369H20.206a1.324,1.324,0,0,0,1.248-1.09l2.473-7.344S24.659,37.138,22.814,37.138Z" transform="translate(0 -31.132)" fill="#575757"/>
    </g>
  </g>
</svg>
